<svg xmlns="http://www.w3.org/2000/svg" width="8" height="8" viewBox="0 0 8 8" shape-rendering="crispEdges" image-rendering="pixelated">
  <!-- Snack pip: berry cluster. Use as alternate feed-action glyph. -->
  <rect width="8" height="8" fill="none"/>
  <!-- Leaf cap -->
  <g fill="#44aa44">
    <rect x="3" y="0" width="2" height="1"/>
    <rect x="2" y="1" width="4" height="1"/>
  </g>
  <rect x="3" y="1" width="2" height="1" fill="#66cc66"/>
  <!-- Top berry -->
  <g fill="#9966ff">
    <rect x="3" y="2" width="2" height="2"/>
    <rect x="2" y="3" width="1" height="1"/>
    <rect x="5" y="3" width="1" height="1"/>
  </g>
  <!-- Side berries -->
  <g fill="#bb88ff">
    <rect x="1" y="4" width="2" height="2"/>
    <rect x="5" y="4" width="2" height="2"/>
    <rect x="0" y="5" width="1" height="1"/>
    <rect x="7" y="5" width="1" height="1"/>
  </g>
  <!-- Bottom berry -->
  <g fill="#9966ff">
    <rect x="3" y="5" width="2" height="2"/>
    <rect x="2" y="6" width="4" height="1"/>
    <rect x="3" y="7" width="2" height="1"/>
  </g>
  <!-- Specular highlights -->
  <g fill="#fff2c0" opacity="0.85">
    <rect x="3" y="2" width="1" height="1"/>
    <rect x="1" y="4" width="1" height="1"/>
    <rect x="5" y="4" width="1" height="1"/>
  </g>
</svg>
