<svg xmlns="http://www.w3.org/2000/svg" width="12" height="12" viewBox="0 0 12 12" shape-rendering="crispEdges" image-rendering="pixelated">
  <!-- Journal sticker: crescent moon. Used as the sleepy/quiet entry bullet. -->
  <rect width="12" height="12" fill="none"/>
  <!-- Moon body -->
  <g fill="#bb88ff">
    <rect x="3" y="1" width="4" height="1"/>
    <rect x="2" y="2" width="5" height="2"/>
    <rect x="1" y="4" width="5" height="4"/>
    <rect x="2" y="8" width="5" height="2"/>
    <rect x="3" y="10" width="4" height="1"/>
  </g>
  <!-- Crescent cutout (matches background) -->
  <g fill="#0d0a1c">
    <rect x="5" y="2" width="3" height="1"/>
    <rect x="4" y="3" width="5" height="2"/>
    <rect x="3" y="5" width="6" height="2"/>
    <rect x="4" y="7" width="5" height="2"/>
    <rect x="5" y="9" width="3" height="1"/>
  </g>
  <!-- Highlight on the curve -->
  <g fill="#ddbbff">
    <rect x="3" y="1" width="2" height="1"/>
    <rect x="2" y="2" width="2" height="1"/>
    <rect x="1" y="4" width="1" height="1"/>
  </g>
  <!-- Tiny adjacent star -->
  <g fill="#fff2c0">
    <rect x="9" y="2" width="1" height="1"/>
    <rect x="9" y="4" width="1" height="1"/>
    <rect x="8" y="3" width="3" height="1"/>
  </g>
</svg>
